<svg version="1.0" xmlns="http://www.w3.org/2000/svg"
     width="512.000000pt" height="512.000000pt" viewBox="0 0 512.000000 512.000000"
     preserveAspectRatio="xMidYMid meet">

    <g transform="translate(0.000000,512.000000) scale(0.100000,-0.100000)"
       fill="#fff" stroke="none">
        <path d="M452 5100 c-109 -29 -187 -74 -272 -160 -87 -86 -131 -163 -160 -276
-20 -76 -20 -118 -20 -2104 0 -1986 0 -2028 20 -2104 29 -113 73 -190 160
-276 86 -87 163 -131 276 -160 76 -20 118 -20 2104 -20 1986 0 2028 0 2104 20
113 29 190 73 276 160 87 86 131 163 160 276 20 76 20 118 20 1913 l0 1836
-458 458 -457 457 -1840 -1 c-1779 0 -1842 -1 -1913 -19z m718 -893 c0 -479 1
-519 20 -591 29 -113 73 -190 160 -276 86 -87 163 -131 276 -160 74 -19 114
-20 939 -20 825 0 865 1 939 20 113 29 190 73 276 160 87 86 131 163 160 276
19 72 20 112 20 591 l0 513 38 0 c36 0 51 -14 380 -343 l342 -342 -2 -1750 -3
-1750 -24 -38 c-13 -21 -42 -50 -64 -65 -37 -25 -51 -27 -154 -31 l-113 -3 0
914 c0 878 -1 918 -20 992 -29 113 -73 190 -160 276 -86 87 -163 131 -276 160
-75 19 -115 20 -1339 20 -1224 0 -1264 -1 -1339 -20 -113 -29 -190 -73 -276
-160 -87 -86 -131 -163 -160 -276 -19 -74 -20 -114 -20 -992 l0 -914 -118 3
c-109 4 -122 6 -159 31 -22 15 -51 44 -64 65 l-24 38 -3 2004 c-1 1390 1 2015
8 2043 13 48 77 114 122 127 18 5 169 10 336 10 l302 1 0 -513z m1590 133 l0
-380 200 0 200 0 0 380 0 380 200 0 201 0 -3 -513 -3 -513 -27 -41 c-15 -22
-44 -51 -65 -64 l-38 -24 -861 0 -860 0 -41 27 c-22 15 -51 44 -64 65 l-24 38
-3 513 -3 512 596 0 595 0 0 -380z m1103 -2009 c21 -13 50 -42 65 -64 l27 -41
3 -913 2 -913 -1395 0 -1395 0 0 893 c0 597 4 905 11 930 13 47 76 113 121
126 20 6 510 9 1278 8 l1245 -2 38 -24z"/>
    </g>
</svg>
